<?xml version="1.0" standalone="no"?>
<!DOCTYPE svg PUBLIC "-//W3C//DTD SVG 20010904//EN"
 "http://www.w3.org/TR/2001/REC-SVG-20010904/DTD/svg10.dtd">
<svg version="1.0" xmlns="http://www.w3.org/2000/svg"
 width="716.000000pt" height="716.000000pt" viewBox="0 0 716.000000 716.000000"
 preserveAspectRatio="xMidYMid meet">
<metadata>
Created by potrace 1.14, written by Peter Selinger 2001-2017
</metadata>
<g transform="translate(0.000000,716.000000) scale(0.100000,-0.100000)"
fill="#000000" stroke="none">
<path d="M2392 6663 l3 -128 128 -3 127 -3 0 131 0 130 -130 0 -131 0 3 -127z"/>
<path d="M2658 6258 l-3 -263 -130 -5 -130 -5 -3 -125 c-2 -84 -7 -127 -15
-132 -7 -5 -64 -7 -127 -6 l-115 3 -5 -400 -5 -400 -132 -3 -133 -3 0 -669 0
-670 130 0 c79 0 130 -4 131 -10 1 -5 3 -14 4 -20 1 -5 3 -62 4 -125 l1 -115
130 0 130 0 0 -130 c0 -79 4 -130 10 -131 6 -1 15 -3 20 -4 6 -1 62 -3 125 -4
l115 -1 0 -130 0 -130 119 0 c66 0 126 -3 135 -6 14 -5 16 -38 16 -265 l0
-259 -263 0 c-191 0 -266 -3 -275 -12 -8 -8 -12 -53 -12 -135 l0 -123 -130 0
c-97 0 -130 -3 -131 -12 -2 -48 3 -263 6 -266 2 -2 60 -3 129 -3 l126 2 0
-124 0 -124 -187 -6 c-104 -4 -639 -7 -1190 -7 l-1003 0 0 -720 0 -720 3580 0
3580 0 0 720 0 720 -1305 0 -1305 0 -1 118 c-1 64 -2 124 -3 132 -1 12 -24 15
-132 18 l-131 3 -6 397 c-4 218 -7 459 -7 535 l0 137 265 0 264 0 3 133 3 132
133 3 132 3 0 128 c0 108 3 130 16 135 9 3 69 6 134 6 l118 0 6 263 c4 144 6
505 4 802 l-3 540 -132 3 -133 3 0 399 0 400 -140 0 -140 0 0 -135 0 -135
-265 0 -265 0 0 265 0 265 -262 2 -263 3 -5 130 -5 130 -265 0 -265 0 -5 -135
-5 -135 -132 -3 -132 -3 -3 -127 -3 -127 -113 -3 c-159 -4 -154 -8 -150 141
l3 122 128 3 127 3 0 264 0 265 -130 0 -130 0 -2 -262z m810 -1740 l2 -398
-135 0 -135 0 0 400 0 401 133 -3 132 -3 3 -397z m1070 0 l2 -398 -135 0 -135
0 0 400 0 401 133 -3 132 -3 3 -397z m-1878 -2678 l0 -120 -130 0 -130 0 0
120 0 120 130 0 130 0 0 -120z"/>
</g>
</svg>
